<?xml version="1.0" encoding="UTF-8"?>
<svg width="488px" height="258px" viewBox="0 0 488 258" version="1.1" xmlns="http://www.w3.org/2000/svg" xmlns:xlink="http://www.w3.org/1999/xlink">
    <title>Group 9</title>
    <g id="Page-1" stroke="none" stroke-width="1" fill="none" fill-rule="evenodd">
        <g id="VLOGO" transform="translate(-56.000000, -283.000000)">
            <g id="Group-9" transform="translate(299.662915, 412.219038) rotate(-90.000000) translate(-299.662915, -412.219038) translate(171.007665, 168.573688)">
                <path d="M176.7656,376.4526 C186.6046,376.4526 194.5809,368.4763 194.5809,358.6373 C194.5809,348.7978 186.6046,340.822 176.7656,340.822 C166.9261,340.822 158.9498,348.7978 158.9498,358.6373 C158.9498,368.4763 166.9261,376.4526 176.7656,376.4526" id="Fill-3" fill="#0071BC"></path>
                <path d="M146.4706,310.5266 C146.4706,300.6876 138.4937,292.7113 128.6547,292.7113 C118.8157,292.7113 110.8394,300.6876 110.8394,310.5266 C110.8394,320.3656 118.8157,328.3419 128.6547,328.3419 C138.4937,328.3419 146.4706,320.3656 146.4706,310.5266" id="Fill-5" fill="#04A384"></path>
                <path d="M80.5446,340.8219 C70.7056,340.8219 62.7287,348.7982 62.7287,358.6372 C62.7287,368.4767 70.7056,376.4525 80.5446,376.4525 C90.3836,376.4525 98.3599,368.4767 98.3599,358.6372 C98.3599,348.7982 90.3836,340.8219 80.5446,340.8219" id="Fill-6" fill="#F3C400"></path>
                <path d="M110.8395,406.7477 C110.8395,416.5866 118.8158,424.5635 128.6548,424.5635 C138.4938,424.5635 146.4707,416.5866 146.4707,406.7477 C146.4707,396.9087 138.4938,388.9324 128.6548,388.9324 C118.8158,388.9324 110.8395,396.9087 110.8395,406.7477" id="Fill-7" fill="#EB4B36"></path>
                <path d="M257.3105,358.6379 C257.3105,325.4221 244.691,293.8964 221.7775,269.8667 L201.9992,288.7243 C220.0437,307.6486 229.9824,332.4789 229.9824,358.6379 C229.9824,414.5084 184.5266,459.9631 128.655,459.9631 C72.7828,459.9631 27.3287,414.5084 27.3287,358.6379 C27.3287,302.7647 72.7828,257.3105 128.655,257.3105 C199.5955,257.3105 257.3105,199.5955 257.3105,128.6561 C257.3105,57.715 199.5955,0 128.655,0 C57.715,0 0,57.715 0,128.6561 C0,161.8687 12.6184,193.396 35.532,217.4274 L55.3108,198.5697 C37.2658,179.6443 27.3287,154.8135 27.3287,128.6561 C27.3287,72.784 72.7828,27.3282 128.655,27.3282 C184.5266,27.3282 229.9824,72.784 229.9824,128.6561 C229.9824,184.5277 184.5266,229.9824 128.655,229.9824 C57.715,229.9824 0,287.6969 0,358.6379 C0,429.5763 57.715,487.2907 128.655,487.2907 C199.5955,487.2907 257.3105,429.5763 257.3105,358.6379" id="Fill-8" fill="#0071BC"></path>
                <polygon id="Fill-11" fill="#0071BC" points="172.1866 80.7644 172.1866 103.581 106.0182 128.1435 172.1866 152.7049 172.1866 174.9838 77.5634 137.0007 77.5634 118.7474"></polygon>
            </g>
        </g>
    </g>
</svg>