<?xml version="1.0" standalone="no"?>
<!DOCTYPE svg PUBLIC "-//W3C//DTD SVG 20010904//EN"
 "http://www.w3.org/TR/2001/REC-SVG-20010904/DTD/svg10.dtd">
<svg version="1.0" xmlns="http://www.w3.org/2000/svg"
 width="976.000000pt" height="976.000000pt" viewBox="0 0 976.000000 976.000000"
 preserveAspectRatio="xMidYMid meet">
<metadata>
Created by potrace 1.14, written by Peter Selinger 2001-2017
</metadata>
<g transform="translate(0.000000,976.000000) scale(0.100000,-0.100000)"
fill="#000000" stroke="none">
<path d="M2360 7441 c0 -3 -19 -6 -43 -7 -63 -1 -133 -12 -267 -39 -14 -3 -45
-10 -70 -15 -57 -11 -198 -54 -270 -81 -30 -12 -59 -22 -65 -24 -88 -23 -433
-207 -540 -287 -5 -4 -41 -31 -80 -60 -74 -54 -75 -55 -170 -139 -180 -159
-356 -373 -494 -599 -72 -119 -224 -456 -224 -497 0 -7 -4 -13 -8 -13 -3 0 -9
-12 -12 -27 -3 -16 -17 -71 -31 -123 -14 -52 -29 -110 -32 -129 -3 -18 -8 -43
-10 -55 -2 -11 -7 -37 -10 -56 -3 -19 -7 -46 -10 -60 -26 -147 -26 -553 0
-700 3 -14 7 -43 10 -65 18 -128 83 -380 125 -480 65 -156 95 -225 109 -252 9
-17 28 -53 41 -80 14 -26 27 -50 30 -53 3 -3 17 -25 30 -50 23 -42 152 -231
176 -256 5 -7 26 -31 45 -55 87 -107 260 -280 350 -350 17 -13 43 -34 58 -47
59 -50 283 -193 392 -249 158 -82 382 -171 500 -197 8 -2 35 -10 60 -17 25 -6
52 -13 60 -15 8 -1 53 -9 100 -18 124 -22 147 -25 235 -33 151 -13 490 -6 575
12 14 3 41 8 60 11 68 9 86 12 179 33 51 12 102 26 112 32 11 5 19 8 19 5 0
-4 52 11 145 44 213 74 476 213 650 343 147 109 260 209 254 225 -4 9 -216
235 -322 343 l-48 49 -37 -36 c-73 -72 -323 -254 -348 -254 -3 0 -18 -8 -32
-19 -15 -10 -52 -29 -82 -42 -30 -12 -57 -25 -60 -29 -5 -6 -86 -39 -160 -66
-47 -17 -168 -51 -210 -60 -14 -3 -33 -7 -42 -10 -22 -6 -44 -11 -98 -18 -25
-3 -56 -9 -70 -12 -53 -13 -406 -12 -505 1 -332 45 -625 156 -895 338 -25 17
-47 34 -50 37 -3 4 -12 11 -21 16 -50 28 -253 219 -334 314 -37 43 -165 217
-165 224 0 3 -15 29 -33 58 -67 106 -197 405 -197 453 0 9 -4 24 -9 33 -16 30
-55 236 -67 352 -5 57 -6 328 0 355 2 11 7 51 11 88 8 82 7 77 39 213 32 134
77 266 122 360 19 39 34 76 34 82 0 6 3 12 8 14 4 2 18 23 31 48 23 45 121
201 131 210 3 3 17 21 30 40 65 93 264 293 380 381 98 74 196 139 209 139 5 0
11 4 13 8 9 23 428 205 428 186 0 -2 8 0 18 5 11 6 30 12 43 15 13 2 55 12 94
21 66 16 83 19 165 30 126 16 317 21 425 10 28 -3 73 -7 100 -10 42 -5 122
-20 265 -51 14 -3 32 -8 40 -11 8 -4 17 -7 20 -8 18 -4 88 -28 105 -35 11 -4
39 -15 62 -24 96 -35 266 -126 388 -206 115 -75 336 -278 421 -385 21 -27 42
-52 45 -55 16 -13 138 -202 164 -255 17 -33 32 -62 35 -65 5 -5 32 -60 35 -70
0 -3 10 -25 22 -50 21 -46 88 -239 97 -282 3 -12 10 -41 15 -63 12 -47 24
-117 37 -205 2 -14 6 -83 9 -155 11 -272 15 -322 30 -448 8 -69 6 -61 40 -211
28 -124 99 -352 117 -373 6 -7 8 -13 5 -13 -8 0 64 -157 122 -265 46 -84 154
-258 171 -275 3 -3 18 -23 35 -45 16 -22 32 -42 35 -45 3 -3 13 -14 21 -26 39
-58 177 -204 280 -299 105 -96 314 -251 379 -281 8 -4 22 -13 30 -20 45 -38
429 -216 494 -228 6 -2 36 -10 66 -20 58 -19 198 -55 240 -62 14 -2 36 -7 50
-10 14 -4 36 -8 50 -9 14 -2 48 -6 75 -10 126 -15 202 -19 355 -19 150 0 204
4 325 19 68 9 157 26 245 47 47 11 92 21 100 23 34 7 232 76 291 100 101 43
292 139 342 174 25 17 48 31 51 31 9 0 181 122 184 131 2 5 9 9 14 9 6 0 18 7
27 15 9 8 41 36 71 62 69 59 253 245 300 301 19 24 45 55 58 70 38 46 182 260
182 271 0 6 3 11 8 11 4 0 12 10 18 23 6 12 33 67 61 122 75 150 148 324 159
381 2 12 10 39 18 62 8 22 24 85 36 139 29 131 29 132 35 178 3 22 7 49 9 61
18 91 25 405 12 563 -10 126 -34 263 -81 461 -7 30 -66 206 -77 230 -6 14 -14
34 -18 45 -39 103 -112 248 -188 375 -40 65 -157 236 -172 250 -3 3 -27 32
-54 65 -79 97 -283 295 -386 374 -95 73 -234 171 -244 171 -3 0 -29 15 -58 34
-105 67 -324 164 -493 219 -129 43 -208 62 -345 87 -52 9 -80 13 -195 27 -73
9 -417 8 -505 -1 -72 -7 -87 -9 -157 -21 -18 -3 -46 -7 -62 -10 -79 -11 -343
-82 -396 -105 -18 -8 -64 -27 -160 -64 -16 -6 -37 -15 -45 -20 -8 -6 -53 -29
-100 -52 -148 -71 -374 -222 -491 -326 -14 -13 -42 -37 -62 -55 -20 -18 -38
-36 -39 -42 -2 -5 53 -68 122 -141 69 -73 150 -159 181 -191 30 -32 59 -59 65
-59 5 1 32 21 59 46 52 48 169 137 220 170 17 10 32 21 35 24 6 6 13 10 115
65 39 20 75 40 80 44 6 4 51 24 100 44 315 127 616 176 940 153 74 -6 97 -8
173 -20 183 -29 362 -85 552 -174 96 -44 292 -167 374 -232 85 -69 235 -214
300 -291 110 -129 229 -321 299 -479 39 -89 94 -239 101 -275 1 -5 5 -19 9
-30 3 -11 8 -31 11 -45 3 -14 7 -36 11 -50 57 -258 54 -647 -7 -875 -5 -22
-12 -49 -14 -60 -2 -11 -17 -61 -33 -110 -73 -225 -175 -420 -320 -610 -128
-168 -299 -330 -471 -445 -36 -24 -77 -52 -92 -62 -15 -10 -30 -18 -34 -18 -4
0 -15 -6 -23 -13 -23 -19 -237 -117 -256 -117 -8 0 -15 -5 -15 -10 0 -6 -3 -9
-7 -8 -5 1 -53 -13 -108 -30 -89 -28 -188 -52 -272 -66 -174 -29 -535 -29
-668 1 -37 8 -32 7 -80 16 -66 13 -229 59 -239 68 -6 5 -19 9 -31 9 -12 0 -25
4 -30 8 -6 5 -37 20 -70 32 -143 57 -352 182 -488 292 -129 105 -397 400 -397
437 0 5 -3 11 -7 13 -11 4 -63 85 -63 97 0 5 -4 11 -8 13 -21 8 -172 348 -187
418 -2 8 -10 41 -20 72 -9 31 -18 70 -21 85 -2 15 -7 39 -10 53 -22 93 -32
206 -39 425 -3 94 -8 186 -10 205 -15 135 -20 165 -37 250 -7 30 -12 57 -13
60 -1 3 -5 23 -9 45 -5 22 -15 61 -23 86 -8 25 -16 52 -17 60 -2 8 -6 21 -9
29 -3 8 -15 44 -27 80 -57 168 -163 383 -268 544 -50 76 -130 188 -141 196 -3
3 -24 28 -45 55 -36 46 -278 291 -322 325 -200 158 -352 255 -537 344 -165 79
-369 152 -522 186 -79 18 -88 20 -125 26 -19 3 -42 7 -50 9 -8 2 -42 7 -75 10
-33 3 -71 9 -85 12 -34 7 -470 11 -470 4z"/>
<path d="M7092 6184 c-74 -19 -125 -50 -176 -104 -80 -85 -113 -201 -90 -310
15 -71 21 -86 60 -140 68 -95 167 -144 289 -145 69 0 89 5 145 31 137 65 209
180 205 325 -3 86 -6 103 -34 156 -74 146 -245 226 -399 187z"/>
<path d="M1620 5739 c0 -6 57 -150 81 -204 4 -11 22 -56 39 -100 17 -44 35
-89 40 -100 5 -11 19 -45 30 -75 12 -30 28 -66 35 -80 7 -14 13 -27 13 -30 1
-9 155 -401 187 -475 7 -16 73 -178 145 -360 73 -181 137 -341 143 -355 5 -14
11 -30 12 -36 2 -6 10 -24 18 -40 l15 -29 181 -1 c119 0 182 3 185 10 2 6 29
74 60 151 31 77 61 149 66 160 5 11 63 157 130 325 67 168 130 324 141 347 10
24 19 49 19 57 0 8 4 17 9 20 5 3 11 16 15 29 3 13 13 41 23 63 9 21 17 41 18
44 5 15 18 49 30 75 7 17 30 73 50 125 21 52 40 100 44 105 3 6 6 12 6 15 2
14 108 276 116 285 5 5 9 19 9 32 0 13 4 23 8 23 5 0 9 6 9 13 0 11 -43 14
-221 13 l-221 -1 -22 -55 c-24 -59 -33 -86 -39 -111 -2 -8 -10 -29 -19 -45 -8
-16 -15 -36 -15 -45 0 -9 -3 -19 -7 -23 -5 -4 -8 -11 -9 -14 0 -4 -4 -16 -9
-27 -19 -51 -70 -185 -128 -345 -194 -528 -242 -649 -249 -637 -6 13 -83 217
-264 707 -36 96 -68 182 -71 190 -4 8 -7 18 -8 23 -2 4 -4 9 -5 12 -1 3 -3 8
-5 13 -1 4 -5 14 -8 22 -4 8 -27 71 -52 140 -25 69 -52 141 -59 160 l-14 35
-226 1 c-124 0 -226 -3 -226 -7z"/>
<path d="M8105 5229 c-69 -8 -117 -23 -160 -52 -54 -37 -106 -97 -133 -155
-23 -49 -27 -70 -27 -147 1 -67 5 -100 19 -130 11 -22 19 -43 18 -47 -3 -17
113 -119 165 -144 51 -26 69 -29 148 -29 76 1 99 5 148 28 59 27 157 116 157
143 0 8 4 14 9 14 14 0 41 112 41 171 0 54 -36 179 -52 179 -4 0 -8 6 -8 14 0
17 -77 89 -121 112 -62 34 -140 50 -204 43z"/>
<path d="M6130 5224 c-97 -36 -120 -50 -171 -102 -99 -101 -129 -243 -79 -374
24 -66 100 -154 151 -179 19 -9 47 -22 63 -30 46 -22 201 -18 251 7 89 44 125
76 170 145 69 106 65 279 -8 382 -69 99 -162 149 -282 154 -44 1 -87 0 -95 -3z"/>
<path d="M7075 4256 c-60 -19 -130 -62 -166 -104 -66 -75 -102 -196 -88 -293
26 -172 191 -308 364 -301 36 2 80 8 80 12 0 1 8 3 17 5 10 2 42 17 73 35 145
83 209 264 151 425 -23 63 -29 72 -80 126 -88 92 -235 132 -351 95z"/>
</g>
</svg>
